<svg id="Group_5960" data-name="Group 5960" xmlns="http://www.w3.org/2000/svg" xmlns:xlink="http://www.w3.org/1999/xlink" width="899.591" height="898.56" viewBox="0 0 899.591 898.56">
  <defs>
    <clipPath id="clip-path">
      <rect id="Rectangle_7530" data-name="Rectangle 7530" width="899.591" height="898.56" fill="none" stroke="#e9d29e" stroke-width="1"/>
    </clipPath>
  </defs>
  <g id="Group_5816" data-name="Group 5816" clip-path="url(#clip-path)">
    <path id="Path_11788" data-name="Path 11788" d="M474.362,663.364C377.695,641.6,285.626,589.89,214.919,523.883S94.862,377.568,83.635,298.609s17.787-141.627,73.778-179.11S296.367,69.717,393.034,91.488s188.735,73.475,259.442,139.484S772.538,377.283,783.769,456.244,765.977,597.868,709.984,635.35,571.03,685.131,474.362,663.364Z" transform="translate(59.963 59.593)" fill="none" stroke="#e9d29e" stroke-width="0.9"/>
    <path id="Path_11789" data-name="Path 11789" d="M790.632,476.911C737.5,554.365,647.964,615.332,546.167,651.287s-215.86,46.9-318.057,24.308-173.186-74.44-205.338-140S-2.7,390.745,50.43,313.289,193.1,174.869,294.9,138.912s215.862-46.9,318.06-24.306,173.181,74.44,205.335,140.006S843.766,399.456,790.632,476.911Z" transform="translate(2.447 75.902)" fill="none" stroke="#e9d29e" stroke-width="0.9"/>
    <path id="Path_11790" data-name="Path 11790" d="M745.43,389.368c34.059,91.831,30.334,175.564-3.222,236.7s-96.941,99.687-182.2,101.147-176.258-34.432-254.453-93.652S161.964,491.8,127.905,399.966s-30.334-175.562,3.224-236.7,96.944-99.685,182.207-101.15,176.258,34.436,254.452,93.659S711.374,297.539,745.43,389.368Z" transform="translate(76.825 45.81)" fill="none" stroke="#e9d29e" stroke-width="0.9"/>
    <path id="Path_11791" data-name="Path 11791" d="M117.525,186.156C162.917,113.414,233,70.511,309.611,59.952s159.751,11.224,231.263,67.856S658.732,265.188,675.851,349.968s5.014,173.59-40.375,246.33S520,711.943,443.387,722.5s-159.748-11.226-231.261-67.855S94.268,517.268,77.149,432.486,72.136,258.9,117.525,186.156Z" transform="translate(51.461 42.346)" fill="none" stroke="#e9d29e" stroke-width="0.9"/>
    <path id="Path_11792" data-name="Path 11792" d="M674.826,237.941c65.473,80.421,93.449,172,85.751,255.041S709.51,650.543,632.294,696.848s-173.659,55.622-267.165,33.259S181.048,653.7,115.576,573.272s-93.447-172-85.749-255.044S80.89,160.668,158.11,114.369,331.765,58.748,425.273,81.111,609.352,157.517,674.826,237.941Z" transform="translate(21.096 51.29)" fill="none" stroke="#e9d29e" stroke-width="0.9"/>
    <path id="Path_11793" data-name="Path 11793" d="M357.918,3.135C438.943,16.569,514.45,78.629,571.029,168.11S665.26,374.489,670.571,497.6,647.846,726.71,598.232,798.583,477.413,908.194,396.386,894.763s-156.531-75.5-213.109-164.976S89.046,523.409,83.736,400.3s22.721-229.12,72.339-300.993S276.892-10.3,357.918,3.135Z" transform="translate(61.327 0.332)" fill="none" stroke="#e9d29e" stroke-width="0.9"/>
    <path id="Path_11794" data-name="Path 11794" d="M241.6,753.064C166.1,695.127,113.683,607.32,89.959,512.19S71.2,314.608,110.49,227.389,215.939,84.686,291.154,65.5s159.48-2.091,234.968,55.848S654.031,267.091,677.755,362.215s18.755,197.573-20.531,284.794-105.447,142.707-180.662,161.9S317.083,811,241.6,753.064Z" transform="translate(55.812 42.782)" fill="none" stroke="#e9d29e" stroke-width="0.9"/>
    <path id="Path_11795" data-name="Path 11795" d="M689.1,544.006c-89.91,70.98-200.215,116.624-305.866,133.038s-206.652,3.6-277.959-42.34S5.859,518.411,18.051,441.793s64.693-159.5,154.6-230.479S372.873,94.691,478.525,78.278s206.651-3.594,277.955,42.34,99.414,116.29,87.222,192.908S779.013,473.024,689.1,544.006Z" transform="translate(11.288 52.733)" fill="none" stroke="#e9d29e" stroke-width="0.9"/>
    <path id="Path_11796" data-name="Path 11796" d="M777.417,636.65c-61.474,73.9-155.886,116.224-258.845,124.918s-214.453-16.247-310.1-76.877S51.172,539.215,28.783,451.054s-5.506-179.64,55.963-253.537S240.635,81.29,343.593,72.6s214.453,16.247,310.088,76.878,157.306,145.472,179.7,233.637S838.884,562.75,777.417,636.65Z" transform="translate(14.265 52.339)" fill="none" stroke="#e9d29e" stroke-width="0.9"/>
    <path id="Path_11797" data-name="Path 11797" d="M662.927,604.42c-92.3,32.258-201.124,35.835-302.444,15.54s-195.14-64.46-257.45-127.69S21.731,358.718,41.39,296.14s77.965-117.415,170.27-149.676S412.782,110.625,514.1,130.917s195.145,64.46,257.45,127.692,81.3,133.552,61.646,196.13S755.232,572.157,662.927,604.42Z" transform="translate(25.069 87.33)" fill="none" stroke="#e9d29e" stroke-width="0.9"/>
    <path id="Path_11798" data-name="Path 11798" d="M429.5,882.69c-73.762-8.549-149.113-65.517-211.307-150.71S106.962,533.371,85.828,411.926,75.453,184,109.943,110.011,202.648-5.461,276.412,3.09,425.521,68.6,487.713,153.8,598.941,352.4,620.079,473.854s10.374,227.929-24.115,301.914S503.26,891.24,429.5,882.69Z" transform="translate(55.356 1.463)" fill="none" stroke="#e9d29e" stroke-width="0.9"/>
    <path id="Path_11799" data-name="Path 11799" d="M129.6,397.973c37.828-107.058,99.907-198.08,169.7-258.7S446.594,48.44,515.267,63s115.5,71.122,135.711,150.818,13.8,182.514-24.03,289.567S527.04,701.465,457.25,762.09s-147.293,90.842-215.963,76.289-115.5-71.131-135.711-150.828S91.776,505.034,129.6,397.973Z" transform="translate(69.609 43.827)" fill="none" stroke="#e9d29e" stroke-width="0.9"/>
    <path id="Path_11800" data-name="Path 11800" d="M49.562,494.136c-19.77-68.963-1.658-144.643,43.6-211.253s117.675-124.151,206.51-156.832S476.948,91.734,548.119,115.51s125.071,72.964,144.836,141.928,1.653,144.646-43.609,211.256S531.67,592.846,442.836,625.525,265.565,659.842,194.4,636.064,69.325,563.1,49.562,494.136Z" transform="translate(30.718 73.332)" fill="none" stroke="#e9d29e" stroke-width="0.9"/>
    <path id="Path_11801" data-name="Path 11801" d="M105.537,159.626c55.867-54.585,145.609-79.3,245.543-75.13s210.055,37.22,306.674,98.161S819.205,320.906,845.912,396.614s15.3,149.832-40.566,204.417-145.621,79.291-245.553,75.12-210.054-37.218-306.676-98.164S91.669,439.744,64.964,364.033,49.67,214.208,105.537,159.626Z" transform="translate(37.781 62.029)" fill="none" stroke="#e9d29e" stroke-width="0.9"/>
    <path id="Path_11802" data-name="Path 11802" d="M755.129,495.753c-18.222,90.053-71.348,161.707-142.508,204.754S452.259,758,361.893,733.629,197.089,650.7,149.806,575.723s-67.418-166.384-49.2-256.431,71.35-161.705,142.515-204.753S403.49,57.05,493.857,81.414s164.8,82.929,212.08,157.911S773.352,405.7,755.129,495.753Z" transform="translate(69.344 51.37)" fill="none" stroke="#e9d29e" stroke-width="0.9"/>
    <path id="Path_11803" data-name="Path 11803" d="M720.1,726.892c-34.884,70.356-103.458,100.036-186.133,91.139s-179.443-56.364-270.716-140.3S103.479,489.294,66.523,388.183,24.15,189.355,59.03,118.994,162.5,18.963,245.167,27.86s179.44,56.363,270.715,140.292S675.648,356.592,712.6,457.7,754.974,656.535,720.1,726.892Z" transform="translate(26.29 19.428)" fill="none" stroke="#e9d29e" stroke-width="0.9"/>
    <path id="Path_11804" data-name="Path 11804" d="M720.347,203.706c21.314,83.109,3.945,180.42-41.363,270.558s-118.56,173.112-209.014,227.55-180.982,70.039-254.224,51.244-129.2-71.977-150.517-155.1S61.283,417.541,106.59,327.4,225.152,154.285,315.608,99.846,496.587,29.814,569.83,48.609,699.034,120.586,720.347,203.706Z" transform="translate(41.465 30.255)" fill="none" stroke="#e9d29e" stroke-width="0.9"/>
    <path id="Path_11805" data-name="Path 11805" d="M825.624,549.462c-41.075,100.25-119.718,175.561-213.665,216.279s-203.2,46.849-305.487,8.73S128.241,661.227,88.129,570.559,43.742,373.683,84.817,273.429,204.532,97.883,298.48,57.164s203.2-46.849,305.479-8.735S782.2,161.675,822.312,252.344,866.7,449.216,825.624,549.462Z" transform="translate(41.3 16.954)" fill="none" stroke="#e9d29e" stroke-width="0.9"/>
    <path id="Path_11806" data-name="Path 11806" d="M84.484,251.561c23.542-82.329,80.794-141.575,154.332-170.807S402.174,52.3,490.849,90.026s159.4,105.24,202.081,183.914,57.313,168.5,33.773,250.828S645.909,666.341,572.377,695.573,409.027,724.021,320.355,686.3s-159.411-105.24-202.1-183.912S60.943,333.89,84.484,251.561Z" transform="translate(54.082 44.385)" fill="none" stroke="#e9d29e" stroke-width="0.9"/>
    <path id="Path_11807" data-name="Path 11807" d="M189.56,90.979C275.532,48.484,381.071,47.514,482.205,80.3S680.07,179.645,748.424,272.188s95.4,193.53,83.853,282.02S770.609,718.682,684.643,761.186,493.132,804.65,392,771.859,194.133,672.516,125.778,579.98,30.388,386.453,41.93,297.961,103.592,133.482,189.56,90.979Z" transform="translate(29.041 42.245)" fill="none" stroke="#e9d29e" stroke-width="0.9"/>
    <path id="Path_11808" data-name="Path 11808" d="M212.078,634.264C146.885,546.615,103.46,442.638,85.951,345.381S76.845,157.589,115.315,96.818s99.723-80.25,167.658-62.634,142.552,72.337,207.746,159.984S599.337,385.8,616.846,483.058s9.1,187.793-29.373,248.551-99.721,80.255-167.654,62.639S277.272,721.911,212.078,634.264Z" transform="translate(56.999 20.64)" fill="none" stroke="#e9d29e" stroke-width="0.9"/>
    <path id="Path_11809" data-name="Path 11809" d="M204.009,61.639c74.148-24.88,166.719-10.609,256.447,32.579S637.068,209.513,699.843,300.3s89.556,183.067,82.1,258.87S732.815,694.293,658.67,719.174s-166.719,10.609-256.449-32.579S225.609,571.306,162.837,480.52,73.278,297.452,80.729,221.65,129.865,86.523,204.009,61.639Z" transform="translate(58.684 36.481)" fill="none" stroke="#e9d29e" stroke-width="0.9"/>
    <path id="Path_11810" data-name="Path 11810" d="M64.511,274.4c2.249-79.061,48.314-137,120.967-166.773s171.9-31.361,280.51,2.28,206.035,96.139,275.741,170S853.423,438.974,851.174,518.037,802.862,655.046,730.212,684.815s-171.9,31.361-280.514-2.279-206.035-96.139-275.739-170S62.266,353.462,64.511,274.4Z" transform="translate(47.548 62.722)" fill="none" stroke="#e9d29e" stroke-width="0.9"/>
    <path id="Path_11811" data-name="Path 11811" d="M642.7,738.813c-86.1,69.928-191.511,98.812-292.348,88.975S153.263,769.4,85.485,684.462-8.755,494.28,3.248,392.787A408.132,408.132,0,0,1,151.817,123.627c86.1-69.935,191.514-98.819,292.35-88.987s197.1,58.384,264.875,143.322,94.238,190.181,82.232,291.677A408.2,408.2,0,0,1,642.7,738.813Z" transform="translate(0.332 24.186)" fill="none" stroke="#e9d29e" stroke-width="0.9"/>
  </g>
</svg>
