<svg id="Group_5820" data-name="Group 5820" xmlns="http://www.w3.org/2000/svg" width="69.655" height="40" viewBox="0 0 69.655 40">
  <rect id="Rectangle_478" data-name="Rectangle 478" width="69.655" height="40" transform="translate(0 0)" fill="#cf161c"/>
  <g id="Group_12" data-name="Group 12" transform="translate(10.33 9.273)">
    <path id="Path_43" data-name="Path 43" d="M2,1.8H4.889V5.119h3.2V1.8h2.889v9.4H8.085V7.393h-3.2V11.2H2Z" transform="translate(-2 -1.8)" fill="#fff" fill-rule="evenodd"/>
    <path id="Path_44" data-name="Path 44" d="M23.985,7.639,22.94,4.258l-1.045,3.38ZM24.6,9.667H21.28L20.85,11.2H17.9l3.5-9.4h3.135l3.5,9.4H25.029Z" transform="translate(-8.128 -1.8)" fill="#fff" fill-rule="evenodd"/>
    <path id="Path_45" data-name="Path 45" d="M38.55,9.175h1.475a1.537,1.537,0,0,0,1.045-.246,1.018,1.018,0,0,0,.307-.738.881.881,0,0,0-.307-.676,1.537,1.537,0,0,0-1.045-.246H38.55Zm0-3.688h1.291a1.276,1.276,0,0,0,.922-.246.839.839,0,0,0,.246-.676.713.713,0,0,0-.246-.615,1.276,1.276,0,0,0-.922-.246H38.55ZM35.6,1.8h5.409a3.045,3.045,0,0,1,2.09.676,2.1,2.1,0,0,1,.738,1.659,2.191,2.191,0,0,1-.492,1.414,2.25,2.25,0,0,1-.983.615,2.5,2.5,0,0,1,1.475.86A2.243,2.243,0,0,1,44.327,8.5a2.272,2.272,0,0,1-.369,1.291,3.292,3.292,0,0,1-.922.922,3.467,3.467,0,0,1-1.106.307c-.676.061-1.106.123-1.291.123H35.6V1.8Z" transform="translate(-14.949 -1.8)" fill="#fff" fill-rule="evenodd"/>
    <path id="Path_46" data-name="Path 46" d="M51.8,1.8h7.806V3.828H54.75V5.3h4.487V7.209H54.75V9.052h4.978V11.2H51.8Z" transform="translate(-21.192 -1.8)" fill="#fff" fill-rule="evenodd"/>
    <path id="Path_47" data-name="Path 47" d="M69.889,5.611h1.229c.123,0,.369-.061.8-.123a.845.845,0,0,0,.492-.307,1.227,1.227,0,0,0,.123-.553.793.793,0,0,0-.307-.676,1.626,1.626,0,0,0-1.106-.246H69.827V5.611ZM67,11.2V1.8h4.855a5.624,5.624,0,0,1,2.028.246,1.738,1.738,0,0,1,1.106.86,2.516,2.516,0,0,1,.43,1.537,3.129,3.129,0,0,1-.307,1.352,3.292,3.292,0,0,1-.922.922,6.588,6.588,0,0,1-1.045.369,2,2,0,0,1,.738.369,3.514,3.514,0,0,1,.492.492c.184.246.369.43.43.553l1.414,2.7H72.962L71.425,8.315a1.9,1.9,0,0,0-.553-.738,1.318,1.318,0,0,0-.738-.246h-.246v3.811H67Z" transform="translate(-27.05 -1.8)" fill="#fff" fill-rule="evenodd"/>
    <path id="Path_48" data-name="Path 48" d="M2,24.4h8.85v2.336H7.839V33.8H4.95V26.736H2Z" transform="translate(-2 -10.51)" fill="#fff" fill-rule="evenodd"/>
    <path id="Path_49" data-name="Path 49" d="M28.923,24.4h2.889v5.593a4.583,4.583,0,0,1-.246,1.6,3.509,3.509,0,0,1-.8,1.291,3.6,3.6,0,0,1-1.168.8,6.4,6.4,0,0,1-2.028.307,13,13,0,0,1-1.475-.123,3.926,3.926,0,0,1-1.352-.369,4.012,4.012,0,0,1-.983-.8,3.333,3.333,0,0,1-.615-1.106,5.333,5.333,0,0,1-.246-1.6V24.4h2.889v5.716a1.674,1.674,0,0,0,.43,1.229,1.53,1.53,0,0,0,1.168.43,1.446,1.446,0,0,0,1.168-.43,1.585,1.585,0,0,0,.43-1.229V24.4Z" transform="translate(-10.055 -10.51)" fill="#fff" fill-rule="evenodd"/>
    <path id="Path_50" data-name="Path 50" d="M47.85,28.211h1.229c.123,0,.369-.061.8-.123a.845.845,0,0,0,.492-.307.991.991,0,0,0,.184-.553.793.793,0,0,0-.307-.676,1.626,1.626,0,0,0-1.106-.246H47.85ZM44.9,33.8V24.4h4.855a6.236,6.236,0,0,1,2.09.246,2.34,2.34,0,0,1,1.168.86,2.516,2.516,0,0,1,.43,1.537,3.129,3.129,0,0,1-.307,1.352,3.292,3.292,0,0,1-.922.922,6.587,6.587,0,0,1-1.045.369,2,2,0,0,1,.738.369,3.513,3.513,0,0,1,.492.492c.184.246.369.43.43.553l1.414,2.7H50.985l-1.659-2.889a1.9,1.9,0,0,0-.553-.738,1.318,1.318,0,0,0-.738-.246h-.246v3.811H44.9Z" transform="translate(-18.533 -10.51)" fill="#fff" fill-rule="evenodd"/>
    <path id="Path_51" data-name="Path 51" d="M65.8,24.4h2.889v3.565L71.762,24.4h3.811l-3.38,3.565L75.757,33.8H72.192l-2.028-3.872-1.475,1.6V33.8H65.8Z" transform="translate(-26.588 -10.51)" fill="#fff" fill-rule="evenodd"/>
    <rect id="Rectangle_20" data-name="Rectangle 20" width="49.169" height="1.69" transform="translate(0 10.51)" fill="#fff"/>
  </g>
</svg>
