<svg id="ciner-logo" xmlns="http://www.w3.org/2000/svg" width="54.244" height="22.309" viewBox="0 0 54.244 22.309">
  <g id="Group_2730" data-name="Group 2730">
    <g id="Group_2729" data-name="Group 2729">
      <path id="Path_5629" data-name="Path 5629" d="M56.6,49.378h1.926l.482,1.083A3.658,3.658,0,0,1,61.927,49.2c3.852-.06,4.514,2.769,4.514,4.183v7.253H63.823V53.351A2.105,2.105,0,0,0,61.6,51.365a3.238,3.238,0,0,0-2.347,1.144v8.1H56.6Z" transform="translate(-42.053 -38.514)" fill="#333" fill-rule="evenodd"/>
      <g id="Group_2728" data-name="Group 2728" transform="translate(10.424 10.654)">
        <rect id="Rectangle_112" data-name="Rectangle 112" width="2.558" height="7.945" transform="translate(0.181 3.491)" fill="#333"/>
        <circle id="Ellipse_11000" data-name="Ellipse 11000" cx="1.475" cy="1.475" r="1.475" fill="#333"/>
      </g>
      <path id="Path_5630" data-name="Path 5630" d="M17.753,50.214A5.431,5.431,0,0,0,14.2,49.1a6.344,6.344,0,0,0-4.033,1.354,5.7,5.7,0,0,0-1.9,4.123c-.12,2.648.722,4.183,2.137,5.176a7.037,7.037,0,0,0,3.672.993,6.531,6.531,0,0,0,3.762-1.083l-.963-2.046a3.4,3.4,0,0,1-3.04.963c-1.354-.15-2.889-.722-2.919-3.491-.03-2.889,1.866-3.792,3.009-3.792a3.687,3.687,0,0,1,2.739.873Z" transform="translate(-8.262 -38.446)" fill="#333" fill-rule="evenodd"/>
      <path id="Path_5631" data-name="Path 5631" d="M159.546,16.288l-.06-.03a1.634,1.634,0,0,1-.482-.993,1.494,1.494,0,0,1,1.445-1.565,1.513,1.513,0,0,1,1.445,1.565,1.73,1.73,0,0,1-.993,1.445s-.09.09.06.12a6.8,6.8,0,0,1,.993.12,1.529,1.529,0,0,1,.963.782,4.412,4.412,0,0,1,.271,1.956v2.287a3.5,3.5,0,0,1-.12.782c-.09.211-.181.662-1.144.843h-.03v5.056h-2.829V23.571s-.813-.15-1.023-.542a2.469,2.469,0,0,1-.241-1.2v-3.28a1.947,1.947,0,0,1,.572-1.264,1.749,1.749,0,0,1,1.144-.451l.572-.03s.09-.06-.09-.15A1.687,1.687,0,0,1,159.546,16.288Z" transform="translate(-112.797 -13.7)" fill="#333" fill-rule="evenodd"/>
      <path id="Path_5632" data-name="Path 5632" d="M178.793,34.8h0a.9.9,0,0,1-.3-.632.935.935,0,0,1,.873-.963.915.915,0,0,1,.873.963,1.046,1.046,0,0,1-.6.873s-.06.06.03.06a2.248,2.248,0,0,1,.6.09.992.992,0,0,1,.6.482,2.428,2.428,0,0,1,.15,1.174v1.384a1.694,1.694,0,0,1-.06.482c-.06.12-.12.391-.692.512h0v3.07h-1.685v-3.07s-.512-.09-.632-.331a1.561,1.561,0,0,1-.15-.722V36.179a1.2,1.2,0,0,1,.361-.782,1.1,1.1,0,0,1,.692-.271l.331-.03s.06-.03-.06-.09A.984.984,0,0,1,178.793,34.8Z" transform="translate(-126.778 -27.332)" fill="#333" fill-rule="evenodd"/>
      <path id="Path_5633" data-name="Path 5633" d="M146.093,18h0a.9.9,0,0,1-.3-.632.935.935,0,0,1,.873-.963.915.915,0,0,1,.873.963,1.046,1.046,0,0,1-.6.873s-.06.06.03.06a2.248,2.248,0,0,1,.6.09.992.992,0,0,1,.6.482,2.428,2.428,0,0,1,.15,1.174v1.384a1.694,1.694,0,0,1-.06.482c-.06.12-.12.391-.692.512h0v3.07h-1.685v-3.07s-.512-.09-.632-.331a1.561,1.561,0,0,1-.15-.722V19.379a1.2,1.2,0,0,1,.361-.782,1.1,1.1,0,0,1,.692-.271l.331-.03s.06-.03-.06-.09A.984.984,0,0,1,146.093,18Z" transform="translate(-103.919 -15.587)" fill="#333" fill-rule="evenodd"/>
    </g>
    <path id="Path_5634" data-name="Path 5634" d="M95.338,53.761h5.507c0-2.678-2.739-2.468-2.739-2.468A2.964,2.964,0,0,0,95.338,53.761Zm-.09,1.956s0,.06.03.451a2.589,2.589,0,0,0,.271.843,2.933,2.933,0,0,0,1.776,1.414c2.8.512,3.852-.782,3.852-.782l.963,2.046a3.744,3.744,0,0,1-1.144.632s-4.183,1.384-6.771-.813c-2.558-2.167-1.565-6.23-1.565-6.23A5.519,5.519,0,0,1,98.016,49.1c6.5,0,5.357,6.621,5.357,6.621Z" transform="translate(-67.128 -38.443)" fill="#333" fill-rule="evenodd"/>
    <path id="Path_5635" data-name="Path 5635" d="M102,58.859a2.938,2.938,0,0,1,2.769-2.468s2.739-.211,2.739,2.468Z" transform="translate(-73.79 -43.54)" fill="none"/>
    <path id="Path_5636" data-name="Path 5636" d="M134.118,51.844v2.739h1.324s1.655,0,1.625-1.414-1.776-1.414-1.776-1.414h-1.174ZM131.53,49.8H135.5a6.315,6.315,0,0,1,1.6.241,2.949,2.949,0,0,1,2.588,3.009,2.825,2.825,0,0,1-1.384,2.678l-.752.391,3.341,4.936H138l-2.979-4.424h-.873v4.424H131.5V49.8Z" transform="translate(-94.412 -38.933)" fill="#333" fill-rule="evenodd"/>
    <path id="Path_5637" data-name="Path 5637" d="M140.2,56.39V56.3h1.174s1.745,0,1.776,1.414-1.625,1.414-1.625,1.414H140.2Z" transform="translate(-100.494 -43.48)" fill="none"/>
  </g>
</svg>
